<?xml version="1.0" encoding="utf-8"?>
<!-- Generator: Adobe Illustrator 25.0.0, SVG Export Plug-In . SVG Version: 6.00 Build 0)  -->
<svg version="1.1" id="图层_1" xmlns="http://www.w3.org/2000/svg" xmlns:xlink="http://www.w3.org/1999/xlink" x="0px" y="0px"
	 viewBox="0 0 171 159.9" style="enable-background:new 0 0 171 159.9;" xml:space="preserve">
<style type="text/css">
	.st0{fill:#FFFFFF;}
	.st1{fill:#161616;}
</style>
<rect x="-0.5" y="-4" class="st0" width="172.3" height="168.2"/>
<path class="st1" d="M141.4,73.3c0-6.9-8.1-13-20.6-16.7c3-12.7,1.7-22.8-4.3-26.2c-1.5-0.8-3.1-1.2-4.8-1.2
	c-5.6,0-12.6,3.9-19.7,10.6c-7.1-6.7-14.1-10.5-19.7-10.5c-1.7,0-3.4,0.4-4.9,1.2c-5.9,3.4-7.2,13.4-4.2,26.1
	c-12.4,3.7-20.5,9.8-20.5,16.6s8.1,13,20.6,16.7c-3,12.7-1.7,22.8,4.3,26.2c1.5,0.8,3.1,1.2,4.8,1.2c5.6,0,12.6-3.9,19.7-10.6
	c7.1,6.7,14.1,10.6,19.7,10.6c1.7,0,3.4-0.4,4.9-1.2c5.9-3.4,7.2-13.4,4.2-26C133.3,86.2,141.3,80.1,141.4,73.3z M96.6,42.1
	c8.2-7.3,13.3-8.1,15.1-8.1l0,0c0.8,0,1.7,0.2,2.4,0.6c2.9,1.6,4,7.4,3.1,15c-0.2,1.9-0.6,3.9-1,5.8c-4.1-1-8.3-1.7-12.6-2.1
	c-2.5-3.5-5.3-6.9-8.2-10.1C95.8,42.8,96.2,42.4,96.6,42.1z M71.8,78.9c0.8,1.5,1.6,3,2.5,4.5s1.8,3,2.8,4.5
	c-2.7-0.4-5.3-0.9-7.8-1.5C69.9,84,70.8,81.5,71.8,78.9z M69,59.9c2.5-0.6,5.2-1.1,7.9-1.5c-1,1.5-1.9,3-2.8,4.6s-1.7,3-2.5,4.5
	C70.7,65,69.8,62.4,69,59.9z M74.2,73.2c1.2-2.6,2.6-5.2,4.1-7.9c1.5-2.6,3.1-5.2,4.8-7.6c2.9-0.2,5.9-0.3,9-0.3s6,0.1,8.9,0.3
	c1.7,2.4,3.2,5,4.8,7.6s2.9,5.2,4.1,7.8c-1.2,2.6-2.6,5.2-4.1,7.8s-3.1,5.2-4.8,7.6c-2.9,0.2-5.9,0.3-9,0.3s-6-0.1-8.9-0.4
	c-1.7-2.4-3.3-4.9-4.8-7.6S75.5,75.8,74.2,73.2L74.2,73.2z M107.1,58.5c2.7,0.4,5.3,0.9,7.8,1.5c-0.7,2.5-1.6,5-2.6,7.6
	c-0.8-1.5-1.6-3-2.5-4.5S108,59.9,107.1,58.5L107.1,58.5z M109.8,83.4c0.9-1.5,1.7-3,2.5-4.5c1,2.6,2,5.2,2.7,7.7
	c-2.5,0.6-5.2,1.1-7.9,1.4C108,86.5,109,85,109.8,83.4L109.8,83.4z M92,46.6c1.8,1.9,3.6,4,5.3,6.2c-1.7-0.1-3.5-0.1-5.2-0.1
	s-3.6,0-5.3,0.1C88.4,50.6,90.2,48.5,92,46.6z M69.8,34.6c0.8-0.4,1.6-0.6,2.5-0.6c1.8,0.1,3.6,0.5,5.2,1.3c3.7,1.7,7,4,10,6.8
	l1.2,1.1c-2.9,3.2-5.7,6.5-8.2,10c-4.3,0.4-8.5,1.1-12.7,2.1c-0.4-1.9-0.8-3.8-1-5.7C65.8,42,67,36.2,69.8,34.6L69.8,34.6z
	 M64.5,85.3c-1.9-0.6-3.7-1.2-5.5-2c-7.1-3-11.5-6.8-11.5-10.1S51.9,66,59,63c1.8-0.7,3.6-1.4,5.4-1.9c1.3,4.1,2.8,8.2,4.6,12.1
	C67.3,77.2,65.8,81.2,64.5,85.3z M87.5,104.4c-8.2,7.3-13.3,8.1-15.1,8.1c-0.8,0-1.7-0.2-2.4-0.6c-2.9-1.6-4-7.4-3.1-15
	c0.2-1.9,0.6-3.9,1-5.8c4.1,1,8.3,1.6,12.6,2.1c2.5,3.5,5.3,6.9,8.2,10.1L87.5,104.4z M92.1,99.8c-1.8-1.9-3.6-4-5.3-6.2
	c1.7,0.1,3.5,0.1,5.2,0.1s3.6,0,5.3-0.1C95.6,95.8,93.9,97.9,92.1,99.8L92.1,99.8z M114.3,111.8c-0.8,0.4-1.6,0.6-2.5,0.6
	c-1.8,0-7-0.8-15.2-8.1l-1.2-1.1c2.9-3.2,5.7-6.5,8.2-10c4.3-0.4,8.5-1.1,12.7-2.1c0.4,1.9,0.8,3.8,1,5.7
	C118.3,104.4,117.1,110.2,114.3,111.8L114.3,111.8z M125.1,83.4c-1.7,0.7-3.5,1.3-5.4,1.9c-1.3-4.1-2.8-8.2-4.6-12.1
	c1.8-3.9,3.3-7.9,4.5-12c1.9,0.6,3.7,1.2,5.5,2c7.1,3,11.5,6.8,11.5,10.1S132.2,80.4,125.1,83.4L125.1,83.4z M92,82.4
	c5.1,0,9.2-4.1,9.2-9.2c0-5.1-4.1-9.2-9.2-9.2c-5.1,0-9.2,4.1-9.2,9.2C82.8,78.3,86.9,82.4,92,82.4C92,82.4,92,82.4,92,82.4z
	 M31,17.9v110.7h122.1V17.9H31z M148.3,123.8H35.8V22.6h112.5V123.8z M63.3,89.9c-3,12.7-1.7,22.8,4.3,26.2c1.5,0.8,3.1,1.2,4.8,1.2
	c5.6,0,12.6-3.9,19.7-10.6c7.1,6.7,14.1,10.6,19.7,10.6c1.7,0,3.4-0.4,4.9-1.2c5.9-3.4,7.2-13.4,4.2-26c12.4-3.7,20.5-9.8,20.5-16.6
	s-8.1-13-20.6-16.7c3-12.7,1.7-22.8-4.3-26.2c-1.5-0.8-3.1-1.2-4.8-1.2c-5.6,0-12.6,3.9-19.7,10.6c-7.1-6.7-14.1-10.5-19.7-10.5
	c-1.7,0-3.4,0.4-4.9,1.2c-5.9,3.4-7.2,13.4-4.2,26.1c-12.4,3.7-20.5,9.8-20.5,16.6S50.8,86.1,63.3,89.9L63.3,89.9z M87.5,104.4
	c-8.2,7.3-13.3,8.1-15.1,8.1c-0.8,0-1.7-0.2-2.4-0.6c-2.9-1.6-4-7.4-3.1-15c0.2-1.9,0.6-3.9,1-5.8c4.1,1,8.3,1.6,12.6,2.1
	c2.5,3.5,5.3,6.9,8.2,10.1L87.5,104.4z M112.3,67.5c-0.8-1.5-1.6-3-2.5-4.5s-1.8-3-2.7-4.5c2.7,0.4,5.3,0.9,7.8,1.5
	C114.2,62.4,113.3,64.9,112.3,67.5L112.3,67.5z M115,86.5c-2.5,0.6-5.2,1.1-7.9,1.4c0.9-1.5,1.9-3,2.8-4.6c0.9-1.6,1.7-3.1,2.5-4.5
	C113.4,81.5,114.3,84,115,86.5L115,86.5z M109.8,73.1c-1.2,2.6-2.6,5.2-4.1,7.8s-3.1,5.2-4.8,7.6c-2.9,0.2-5.9,0.3-9,0.3
	s-6-0.1-8.9-0.4c-1.7-2.4-3.3-4.9-4.8-7.6s-2.9-5.2-4.1-7.8c1.2-2.6,2.6-5.2,4.1-7.9c1.5-2.6,3.1-5.2,4.8-7.6c2.9-0.2,5.9-0.3,9-0.3
	s6,0.1,8.9,0.3c1.7,2.4,3.2,5,4.8,7.6S108.6,70.6,109.8,73.1L109.8,73.1z M77,88c-2.7-0.4-5.3-0.9-7.8-1.5c0.7-2.5,1.6-5,2.7-7.6
	c0.8,1.5,1.6,3,2.5,4.5S76,86.5,77,88z M74.2,63c-0.9,1.5-1.7,3-2.5,4.5c-1-2.6-2-5.1-2.8-7.6c2.5-0.6,5.2-1.1,7.9-1.5
	C76,59.9,75.1,61.5,74.2,63z M92.1,99.8c-1.8-1.9-3.6-4-5.3-6.2c1.7,0.1,3.5,0.1,5.2,0.1s3.6,0,5.3-0.1
	C95.6,95.8,93.9,97.9,92.1,99.8z M114.3,111.8c-0.8,0.4-1.6,0.6-2.5,0.6c-1.8,0-7-0.8-15.2-8.1l-1.2-1.1c2.9-3.2,5.7-6.5,8.2-10
	c4.3-0.4,8.5-1.1,12.7-2.1c0.4,1.9,0.8,3.8,1,5.7C118.3,104.4,117.1,110.2,114.3,111.8L114.3,111.8z M119.5,61.2
	c1.9,0.6,3.7,1.2,5.5,2c7.1,3,11.5,6.9,11.5,10.1s-4.4,7.2-11.5,10.1c-1.7,0.7-3.5,1.3-5.4,1.9c-1.3-4.1-2.8-8.2-4.6-12.1
	C116.8,69.3,118.3,65.3,119.5,61.2L119.5,61.2z M96.5,42.1c8.2-7.3,13.3-8.1,15.1-8.1l0,0c0.8,0,1.7,0.2,2.4,0.6
	c2.9,1.6,4,7.4,3.1,15c-0.2,1.9-0.6,3.9-1,5.8c-4.1-1-8.3-1.7-12.6-2.1c-2.5-3.5-5.3-6.9-8.2-10.1C95.8,42.8,96.2,42.4,96.5,42.1
	L96.5,42.1z M92,46.6c1.8,1.9,3.6,4,5.3,6.2c-1.7-0.1-3.5-0.1-5.2-0.1s-3.6,0-5.3,0.1C88.4,50.6,90.2,48.5,92,46.6z M69.8,34.6
	c0.8-0.4,1.6-0.6,2.5-0.6c1.8,0.1,3.6,0.5,5.2,1.3c3.7,1.7,7,4,10,6.8l1.2,1.1c-2.9,3.2-5.7,6.5-8.2,10c-4.3,0.4-8.5,1.1-12.7,2.1
	c-0.4-1.9-0.8-3.8-1-5.7C65.8,42,67,36.2,69.8,34.6L69.8,34.6z M59,63c1.8-0.7,3.6-1.4,5.4-1.9c1.3,4.1,2.8,8.2,4.6,12.1
	c-1.8,3.9-3.3,7.9-4.5,12c-1.9-0.6-3.7-1.2-5.5-2c-7.1-3-11.5-6.8-11.5-10.1S51.9,66,59,63z M92,64.1c-5.1,0-9.2,4.1-9.2,9.2
	c0,5.1,4.1,9.2,9.2,9.2c5.1,0,9.2-4.1,9.2-9.2C101.2,68.2,97.1,64,92,64.1C92,64,92,64,92,64.1L92,64.1z M92,64.1
	c-5.1,0-9.2,4.1-9.2,9.2c0,5.1,4.1,9.2,9.2,9.2c5.1,0,9.2-4.1,9.2-9.2C101.2,68.2,97.1,64,92,64.1C92,64,92,64,92,64.1L92,64.1z
	 M92,64.1c-5.1,0-9.2,4.1-9.2,9.2c0,5.1,4.1,9.2,9.2,9.2c5.1,0,9.2-4.1,9.2-9.2C101.2,68.2,97.1,64,92,64.1C92,64,92,64,92,64.1
	L92,64.1z M141.4,73.3c0-6.9-8.1-13-20.6-16.7c3-12.7,1.7-22.8-4.3-26.2c-1.5-0.8-3.1-1.2-4.8-1.2c-5.6,0-12.6,3.9-19.7,10.6
	c-7.1-6.7-14.1-10.5-19.7-10.5c-1.7,0-3.4,0.4-4.9,1.2c-5.9,3.4-7.2,13.4-4.2,26.1c-12.4,3.7-20.5,9.8-20.5,16.6s8.1,13,20.6,16.7
	c-3,12.7-1.7,22.8,4.3,26.2c1.5,0.8,3.1,1.2,4.8,1.2c5.6,0,12.6-3.9,19.7-10.6c7.1,6.7,14.1,10.6,19.7,10.6c1.7,0,3.4-0.4,4.9-1.2
	c5.9-3.4,7.2-13.4,4.2-26C133.3,86.2,141.3,80.1,141.4,73.3L141.4,73.3z M96.6,42.1c8.2-7.3,13.3-8.1,15.1-8.1l0,0
	c0.8,0,1.7,0.2,2.4,0.6c2.9,1.6,4,7.4,3.1,15c-0.2,1.9-0.6,3.9-1,5.8c-4.1-1-8.3-1.7-12.6-2.1c-2.5-3.5-5.3-6.9-8.2-10.1
	C95.8,42.8,96.2,42.4,96.6,42.1z M71.8,78.9c0.8,1.5,1.6,3,2.5,4.5s1.8,3,2.8,4.5c-2.7-0.4-5.3-0.9-7.8-1.5
	C69.9,84,70.8,81.5,71.8,78.9z M69,59.9c2.5-0.6,5.2-1.1,7.9-1.5c-1,1.5-1.9,3-2.8,4.6s-1.7,3-2.5,4.5C70.7,65,69.8,62.4,69,59.9z
	 M74.2,73.2c1.2-2.6,2.6-5.2,4.1-7.9c1.5-2.6,3.1-5.2,4.8-7.6c2.9-0.2,5.9-0.3,9-0.3s6,0.1,8.9,0.3c1.7,2.4,3.2,5,4.8,7.6
	s2.9,5.2,4.1,7.8c-1.2,2.6-2.6,5.2-4.1,7.8s-3.1,5.2-4.8,7.6c-2.9,0.2-5.9,0.3-9,0.3s-6-0.1-8.9-0.4c-1.7-2.4-3.3-4.9-4.8-7.6
	S75.5,75.8,74.2,73.2L74.2,73.2z M107.1,58.5c2.7,0.4,5.3,0.9,7.8,1.5c-0.7,2.5-1.6,5-2.6,7.6c-0.8-1.5-1.6-3-2.5-4.5
	S108,59.9,107.1,58.5L107.1,58.5z M109.8,83.4c0.9-1.5,1.7-3,2.5-4.5c1,2.6,2,5.2,2.7,7.7c-2.5,0.6-5.2,1.1-7.9,1.4
	C108,86.5,109,85,109.8,83.4L109.8,83.4z M92,46.6c1.8,1.9,3.6,4,5.3,6.2c-1.7-0.1-3.5-0.1-5.2-0.1s-3.6,0-5.3,0.1
	C88.4,50.6,90.2,48.5,92,46.6z M69.8,34.6c0.8-0.4,1.6-0.6,2.5-0.6c1.8,0.1,3.6,0.5,5.2,1.3c3.7,1.7,7,4,10,6.8l1.2,1.1
	c-2.9,3.2-5.7,6.5-8.2,10c-4.3,0.4-8.5,1.1-12.7,2.1c-0.4-1.9-0.8-3.8-1-5.7C65.8,42,67,36.2,69.8,34.6L69.8,34.6z M64.5,85.3
	c-1.9-0.6-3.7-1.2-5.5-2c-7.1-3-11.5-6.8-11.5-10.1S51.9,66,59,63c1.8-0.7,3.6-1.4,5.4-1.9c1.3,4.1,2.8,8.2,4.6,12.1
	C67.3,77.2,65.8,81.2,64.5,85.3z M87.5,104.4c-8.2,7.3-13.3,8.1-15.1,8.1c-0.8,0-1.7-0.2-2.4-0.6c-2.9-1.6-4-7.4-3.1-15
	c0.2-1.9,0.6-3.9,1-5.8c4.1,1,8.3,1.6,12.6,2.1c2.5,3.5,5.3,6.9,8.2,10.1L87.5,104.4z M92.1,99.8c-1.8-1.9-3.6-4-5.3-6.2
	c1.7,0.1,3.5,0.1,5.2,0.1s3.6,0,5.3-0.1C95.6,95.8,93.9,97.9,92.1,99.8L92.1,99.8z M114.3,111.8c-0.8,0.4-1.6,0.6-2.5,0.6
	c-1.8,0-7-0.8-15.2-8.1l-1.2-1.1c2.9-3.2,5.7-6.5,8.2-10c4.3-0.4,8.5-1.1,12.7-2.1c0.4,1.9,0.8,3.8,1,5.7
	C118.3,104.4,117.1,110.2,114.3,111.8L114.3,111.8z M125.1,83.4c-1.7,0.7-3.5,1.3-5.4,1.9c-1.3-4.1-2.8-8.2-4.6-12.1
	c1.8-3.9,3.3-7.9,4.5-12c1.9,0.6,3.7,1.2,5.5,2c7.1,3,11.5,6.8,11.5,10.1S132.2,80.4,125.1,83.4L125.1,83.4z M92,82.4
	c5.1,0,9.2-4.1,9.2-9.2c0-5.1-4.1-9.2-9.2-9.2c-5.1,0-9.2,4.1-9.2,9.2C82.8,78.3,86.9,82.4,92,82.4C92,82.4,92,82.4,92,82.4z
	 M22.7,136.9V26.2L17.9,31v110.7h122.1l4.8-4.8H22.7z"/>
</svg>
